<svg id="Layer_1" data-name="Layer 1" xmlns="http://www.w3.org/2000/svg" viewBox="0 0 1619.09 374"><defs><style>.cls-1{fill:#2a54ff;}.cls-2{fill:#fcee21;}.cls-3{fill:red;}.cls-4{fill:#39b54a;}.cls-5{fill:#3fa9f5;}.cls-6{fill:#f7931e;}.cls-7{fill:#fbb03b;}.cls-8{fill:#29abe2;}.cls-9{fill:#999;}</style></defs><circle class="cls-1" cx="187" cy="187" r="186.5"/><path d="M242,64a185.43,185.43,0,1,1-72.4,14.62A184.82,184.82,0,0,1,242,64m0-1C138.72,63,55,146.72,55,250s83.72,187,187,187,187-83.72,187-187S345.28,63,242,63Z" transform="translate(-55 -63)"/><path d="M286.25,222.78l-21.88,54Q248,316.91,239.12,332.07a91.36,91.36,0,0,1-22.47,25.84q-19.78,15.55-45.88,15.56-27.56,0-44.7-17.41t-17.13-45.22q0-37.17,27.15-65,14.64-15,36.65-24.19a112.93,112.93,0,0,1,43.64-9.17q10.41,0,16.74,4.68a14.64,14.64,0,0,1,6.33,12.33,15.12,15.12,0,0,1-6.85,12.92q-4,2.91-15.16,4-26.12,2.37-42.32,12a60.58,60.58,0,0,0-21.23,21,52.41,52.41,0,0,0-7.78,27.36q0,14.63,7.58,23.27t20.37,8.63q16.08,0,27.82-13.58t25.84-48.25l45.75-112.46H259.1q-18.2,0-18.2-12.65,0-9,6.4-13.91t18-4.94h50.23q25.32,0,37.38,9.55T365,171.89q0,24.26-18.72,39.68-13.58,11.2-41.92,11.21ZM299,191.27h10.68q21.09,0,21.09-17.14,0-9.75-12-9.76H310Z" transform="translate(-55 -63)"/><path class="cls-2" d="M378.41,284.08h13.84q16.74,0,16.74,11.73,0,8.06-5.86,12.53t-16.42,4.48H363q-9.75,0-15.42-4.61a15.17,15.17,0,0,1-5.67-12.4q0-4.08,3.82-13.57l53.26-131,1.45-3.56q6.07-14.76,19.38-14.76a13.19,13.19,0,0,1,9.43,3.69,11.76,11.76,0,0,1,3.89,8.83,24.69,24.69,0,0,1-2,9l-1.45,3.56Z" transform="translate(-55 -63)"/><path class="cls-3" d="M504.84,284.08h14.5q16.6,0,16.61,11.6,0,8-5.93,12.59t-16.35,4.55H496.8q-11.34,0-15.43-8.83-9.89,8.83-19.11,8.83h-15q-14.5,0-23.4-10.35t-8.9-27.09q0-25.31,17.46-45.29t39.49-20q16.88,0,24.65,11.73,6.6-9.89,17.27-9.88a13.52,13.52,0,0,1,9.69,3.69,12.05,12.05,0,0,1,3.89,9.1,23.93,23.93,0,0,1-2.11,8.83l-1.45,3.56Zm-47.86.66h3.3q10.8,0,14.37-8.83l9.23-22.81a20.57,20.57,0,0,0,1.84-7.51c0-2.38-1.16-4.44-3.49-6.2a13.49,13.49,0,0,0-8.37-2.64q-9.63,0-18.72,11.21t-9.1,23.2Q446,284.73,457,284.74Z" transform="translate(-55 -63)"/><path class="cls-4" d="M638.65,284.08h15.82q16.74,0,16.75,11.73,0,8.06-5.94,12.53t-16.34,4.48H621.38a19.51,19.51,0,0,1-13.51-4.88,15.71,15.71,0,0,1-5.47-12.26c0-3,1.23-7.47,3.69-13.44l11.6-28.74a23.3,23.3,0,0,0,2-7.26,6.45,6.45,0,0,0-2.57-5.4,10.52,10.52,0,0,0-6.92-2.24q-13.59,0-21.89,20.43l-15.56,38.24q-7,17.4-20.83,17.4a14.21,14.21,0,0,1-9.62-3.43,10.73,10.73,0,0,1-4-8.44,24.13,24.13,0,0,1,2.11-8.83l1.45-3.56,26.64-65.65Q573.65,212,586.05,212q10.16,0,14.5,9,14.12-10.8,26.9-10.81,12.39,0,20.43,7.12a23.08,23.08,0,0,1,8,18.06,36.19,36.19,0,0,1-2.9,13.32Z" transform="translate(-55 -63)"/><path class="cls-5" d="M707.73,274.19q0,9.9,14.9,9.89h39.16q16.61,0,16.61,11.73,0,8.06-5.87,12.53t-16.41,4.48H718.81q-20.84,0-31.71-10.28t-10.87-30.06a62.18,62.18,0,0,1,17.2-43.9q17.21-18.47,40.93-18.46,17.28,0,27.76,9T772.6,243q0,17.79-14.5,26.37-8.05,4.88-24,4.87Zm6.33-24h14.5q14.12,0,13.71-6.2-.39-7-9.09-7Q721,237,714.06,250.2Z" transform="translate(-55 -63)"/><path class="cls-6" d="M849.33,212h4.08q16.74,0,16.75,11.73,0,8-5.94,12.53t-16.34,4.48h-9.63l-17.66,43.37h14.76q16.74,0,16.74,11.73,0,8.06-5.86,12.53t-16.42,4.48H806.22q-10,0-15.89-4.61a15.1,15.1,0,0,1-5.87-12.53,29.29,29.29,0,0,1,2.38-10.81l2.5-5.8,15.56-38.36h-2q-14.76,0-14.77-11.47,0-8.18,5.87-12.72T810.43,212h6.07l7-17.27,1.45-3.56q6.19-14.64,19.51-14.64a13.14,13.14,0,0,1,9.29,3.63,11.57,11.57,0,0,1,3.89,8.77q0,5-3.43,12.65Z" transform="translate(-55 -63)"/><path d="M1097.18,245.32l-14.64,36h26.24q14.76,0,14.76,12.92,0,8.7-6.46,13.65t-17.92,4.94h-27q-12.8,0-20.3-5.86t-7.52-16a36.3,36.3,0,0,1,3-13.71l2.11-5.15,11-26.76h-42.06l-25.71,63.15q-26.49,65.38-79.1,65.39-27.94,0-46.08-17.47T849.33,311.9a80.86,80.86,0,0,1,10.54-39.82,99.16,99.16,0,0,1,29.8-32.69,133.8,133.8,0,0,1,37.77-18.19,141.61,141.61,0,0,1,42.38-6.73l18.72-.53,5.81-.13,25.7-63.15,1.45-3.82q6.6-15.83,20.83-15.82a15.63,15.63,0,0,1,10.81,3.89,12.19,12.19,0,0,1,4.36,9.43q0,4.47-3.7,13.57l-22.67,55.9h42l25.45-62.62,1.58-3.95Q1106.93,131,1121.3,131a15.12,15.12,0,0,1,10.55,4,12.64,12.64,0,0,1,4.35,9.75q0,4.49-3.82,14L1110,213.81h13.71q14.63,0,14.63,12.92,0,8.7-6.46,13.65t-17.8,4.94Zm-115.62,0h-7.12q-39,0-62.36,17.8A72.52,72.52,0,0,0,893,284.35q-7,12-7,23.59,0,13.71,8.3,22.75a27.3,27.3,0,0,0,21,9q28,0,46.28-45.22Z" transform="translate(-55 -63)"/><path class="cls-7" d="M1236.26,284.08h15.3q9.09,0,12.92,2.7t3.82,8.9q0,8-5.87,12.59T1246,312.82h-23.6q-11.07,0-14.76-8.57a22.84,22.84,0,0,1-18.2,8.57h-19.25q-11.6,0-19.24-7.25a24.16,24.16,0,0,1-7.65-18.32q0-6.33,3.43-14.77l17.93-44q7.52-18.33,20.56-18.33a13.74,13.74,0,0,1,9.63,3.63,11.62,11.62,0,0,1,4,8.9,24.38,24.38,0,0,1-2.11,9.09l-1.45,3.56-13.84,33.88-1.45,4a23.24,23.24,0,0,0-1.32,5.14q-.26,5.94,7.65,5.93,16.35,0,21.75-13.18l16.48-40.61q7.38-18.45,20.83-18.45a13.41,13.41,0,0,1,9.49,3.69,11.65,11.65,0,0,1,4,8.83q0,4.09-3.43,12.66Z" transform="translate(-55 -63)"/><path class="cls-8" d="M1306.14,240.84l-4.49,11.07q-6.06,14.78-15.82,14.77a14.22,14.22,0,0,1-9.88-3.56,11.4,11.4,0,0,1-4-8.83q0-3,2.9-10.29l14.9-36.78q5.4-13.32,15.29-13.31t12,9.22l1.05,4.09q.8,3.17,2.38,4c1,.52,3.64.79,7.78.79h30.84q17.28,0,17.28,12.13,0,16.74-21.89,16.74l-1.45,1.32q-21,20-21,31t12.13,10.94h16.61q16.74,0,16.74,11.6,0,8.18-5.87,12.66t-16.41,4.48h-25.84q-13.18,0-21.55-9.09t-8.38-23.6A38.7,38.7,0,0,1,1304,262.2q4.47-8.7,15.82-21.36Z" transform="translate(-55 -63)"/><path class="cls-3" d="M1418.72,284.08h13.85q16.74,0,16.74,11.73,0,8.06-5.87,12.53T1427,312.82H1403.3q-9.77,0-15.42-4.61a15.14,15.14,0,0,1-5.67-12.4q0-4.08,3.82-13.57l53.26-131,1.45-3.56q6.06-14.76,19.38-14.76a13.22,13.22,0,0,1,9.43,3.69,11.76,11.76,0,0,1,3.89,8.83,24.69,24.69,0,0,1-2,9l-1.45,3.56Z" transform="translate(-55 -63)"/><path class="cls-4" d="M1486.75,274.19q0,9.9,14.9,9.89h39.15q16.62,0,16.62,11.73,0,8.06-5.87,12.53t-16.41,4.48h-37.31q-20.83,0-31.71-10.28t-10.88-30.06a62.19,62.19,0,0,1,17.21-43.9q17.21-18.47,40.93-18.46,17.28,0,27.75,9t10.49,23.8q0,17.79-14.51,26.37-8,4.88-24,4.87Zm6.33-24h14.5q14.12,0,13.71-6.2-.39-7-9.09-7Q1500.06,237,1493.08,250.2Z" transform="translate(-55 -63)"/><path class="cls-9" d="M1637.7,318.23H1653q16.74,0,16.74,11.73,0,8-5.87,12.52T1647.46,347H1626.1q-3.82,11.34-13.84,30.06-17.4,33-50.63,33-20.16,0-33.88-12.65A41,41,0,0,1,1514,366a43.31,43.31,0,0,1,7.45-24.32,46.73,46.73,0,0,1,19.58-16.94q14-6.46,41.26-6.46h21.49l3.83-9.5a46.76,46.76,0,0,1-17.93,4.09q-14.12,0-22.88-7.18a23,23,0,0,1-8.76-18.66q0-7,5.66-21l14.37-35.46,1.45-3.7q6.33-14.9,19.65-14.89a13.55,13.55,0,0,1,9.69,3.69,12.36,12.36,0,0,1,3.89,9.36q0,3.82-3.43,12.39l-12.92,31.51q-3,7.65-3.16,9.89-.4,6.46,8.17,6.46a25.22,25.22,0,0,0,12.39-3.56q6.33-3.56,8-8l17.67-43.11,1.32-3.7q6.2-14.9,19.64-14.89a13.4,13.4,0,0,1,9.69,3.75,12.44,12.44,0,0,1,3.89,9.3,24.5,24.5,0,0,1-2,8.83l-1.58,3.56ZM1594.59,347h-18.45q-30.33,0-30.33,19a14.48,14.48,0,0,0,4.16,10.81q4.15,4.1,11.14,4.09,9.62,0,17.07-7.52T1594.59,347Z" transform="translate(-55 -63)"/></svg>